<?xml version="1.0" standalone="no"?>
<!DOCTYPE svg PUBLIC "-//W3C//DTD SVG 20010904//EN"
 "http://www.w3.org/TR/2001/REC-SVG-20010904/DTD/svg10.dtd">
<svg version="1.0" xmlns="http://www.w3.org/2000/svg"
 width="512.000000pt" height="512.000000pt" viewBox="0 0 512.000000 512.000000"
 preserveAspectRatio="xMidYMid meet">
<metadata>
Created by potrace 1.14, written by Peter Selinger 2001-2017
</metadata>
<g transform="translate(0.000000,512.000000) scale(0.100000,-0.100000)"
fill="#000000" stroke="none">
<path d="M2438 4165 c-2 -2 -28 -5 -58 -9 -30 -3 -67 -8 -82 -11 -16 -3 -39
-7 -53 -9 -36 -6 -194 -55 -235 -73 -88 -37 -185 -87 -242 -122 -58 -37 -63
-39 -89 -25 -52 27 -203 77 -271 90 -13 2 -34 6 -48 9 -94 21 -378 28 -493 12
-73 -10 -212 -50 -275 -79 -59 -27 -167 -97 -208 -135 -188 -171 -272 -448
-241 -788 7 -71 8 -76 26 -155 53 -229 188 -430 377 -558 65 -45 181 -101 223
-109 13 -2 28 -6 32 -9 4 -2 7 -82 7 -177 -1 -193 13 -296 60 -432 117 -339
412 -571 877 -690 50 -13 108 -26 129 -29 67 -11 87 -18 142 -51 30 -18 85
-45 122 -60 37 -15 76 -31 87 -36 23 -9 108 -27 175 -37 58 -8 250 -9 316 0
138 17 302 74 399 138 22 15 58 30 80 35 58 10 77 14 103 20 12 3 31 7 42 10
219 48 470 161 614 276 135 108 283 321 311 449 2 8 11 42 19 75 24 91 31 165
29 342 l-1 161 62 22 c153 56 263 131 376 256 41 46 110 148 110 163 0 6 5 11
10 11 6 0 10 8 10 18 0 10 4 22 9 27 24 27 73 196 88 305 9 69 10 257 1 332
-16 134 -75 292 -146 387 -46 62 -141 149 -204 187 -64 39 -213 101 -263 110
-16 3 -50 10 -75 16 -58 14 -368 19 -440 7 -135 -22 -137 -22 -200 -39 -60
-15 -173 -56 -209 -75 -26 -13 -31 -13 -52 4 -121 95 -423 210 -624 237 -46 6
-322 14 -327 9z"/>
</g>
</svg>
